<svg xmlns="http://www.w3.org/2000/svg" xmlns:xlink="http://www.w3.org/1999/xlink" width="17" height="17" viewBox="0 0 17 17">
  <defs>
    <clipPath id="clip-path_4">
      <rect id="Rectangle_651" data-name="Rectangle 651" width="17" height="17" transform="translate(17 268)" stroke="#575756" stroke-width="1"/>
    </clipPath>
  </defs>
  <g id="Mask_Group_182" data-name="Mask Group 182" transform="translate(-17 -268)" clip-path="url(#clip-path_4)">
    <g id="_031-diamond" data-name="031-diamond" transform="translate(17 269.5)">
      <path id="Path_835" data-name="Path 835" d="M16.916,5.872,14.138,1.409a.556.556,0,0,0-.472-.262H3.333a.556.556,0,0,0-.472.262L.084,5.872a.555.555,0,0,0,.067.675L8.1,14.973a.555.555,0,0,0,.808,0l7.944-8.425A.556.556,0,0,0,16.916,5.872ZM8.5,13.782,1.253,6.1,3.642,2.258h9.716L15.747,6.1Z" transform="translate(0 -1.147)"/>
      <path id="Path_836" data-name="Path 836" d="M.425,4.56H16.314V5.671H.425Z" transform="translate(0.131 -0.097)"/>
      <path id="Path_837" data-name="Path 837" d="M4.63,6.007l.857-4.3L4.4,1.489,3.508,5.952a.556.556,0,0,0,.029.315l3.37,8.426L7.94,14.28Z" transform="translate(1.076 -1.042)"/>
      <path id="Path_838" data-name="Path 838" d="M10.572,5.887,9.646,1.554,8.56,1.786,9.45,5.953,6.106,14.259l1.031.415,3.408-8.463A.558.558,0,0,0,10.572,5.887Z" transform="translate(1.879 -1.022)"/>
    </g>
  </g>
</svg>
