<svg id="Component_38_1" data-name="Component 38 – 1" xmlns="http://www.w3.org/2000/svg" xmlns:xlink="http://www.w3.org/1999/xlink" width="31" height="31" viewBox="0 0 31 31">
  <defs>
    <clipPath id="clip-path_8">
      <rect id="Rectangle_545" data-name="Rectangle 545" width="31" height="31" transform="translate(1031 155)" stroke="#707070" stroke-width="1"/>
    </clipPath>
  </defs>
  <g id="Mask_Group_144" data-name="Mask Group 144" transform="translate(-1031 -155)" opacity="0.25" clip-path="url(#clip-path_8)">
    <path id="cancel-form" fill="#707070" stroke="#707070" d="M28.034,1.248V16.436a1.248,1.248,0,0,1-2.5,0V2.5H4.732V28.5H14.3a1.248,1.248,0,0,1,0,2.5H3.484a1.252,1.252,0,0,1-1.248-1.248V1.248A1.252,1.252,0,0,1,3.484,0h23.3A1.252,1.252,0,0,1,28.034,1.248ZM9.725,9.779H20.96a1.248,1.248,0,0,0,0-2.5H9.725a1.248,1.248,0,0,0,0,2.5ZM22.208,15.4a1.252,1.252,0,0,0-1.248-1.248H9.725a1.248,1.248,0,0,0,0,2.5H20.96A1.252,1.252,0,0,0,22.208,15.4ZM9.725,20.805a1.248,1.248,0,0,0,0,2.5h3.329a1.248,1.248,0,0,0,0-2.5Zm18.662.062a1.269,1.269,0,0,0-1.768,0l-2.954,2.954L20.69,20.847a1.25,1.25,0,0,0-1.768,1.768L21.9,25.591l-2.975,2.975a1.269,1.269,0,0,0,0,1.768,1.232,1.232,0,0,0,.874.374,1.2,1.2,0,0,0,.874-.374l2.975-2.975,2.975,2.975a1.232,1.232,0,0,0,.874.374,1.2,1.2,0,0,0,.874-.374,1.269,1.269,0,0,0,0-1.768l-2.934-2.975,2.975-2.975A1.224,1.224,0,0,0,28.388,20.868Z" transform="translate(1031 155)"/>
  </g>
</svg>
