<svg id="Component_37_1" data-name="Component 37 – 1" xmlns="http://www.w3.org/2000/svg" xmlns:xlink="http://www.w3.org/1999/xlink" width="16" height="16" viewBox="0 0 16 16">
  <defs>
    <clipPath id="clip-path_16">
      <rect id="Rectangle_29" data-name="Rectangle 29" width="16" height="16" transform="translate(1188 207)" fill="#fff" stroke="#707070" stroke-width="1.5"/>
    </clipPath>
  </defs>
  <g id="Mask_Group_68" data-name="Mask Group 68" transform="translate(-1188 -207)" clip-path="url(#clip-path_16)">
    <g id="descendant" transform="translate(1188.039 207.039)">
      <g id="Group_416" data-name="Group 416" transform="translate(0.391 0.391)">
        <g id="Group_415" data-name="Group 415">
          <path id="Path_221" data-name="Path 221" d="M15.714,4.294,11.995.574a.621.621,0,0,0-.88,0L7.4,4.294a.623.623,0,1,0,.88.88l2.648-2.648v10.9a.63.63,0,0,0,1.26,0V2.526l2.648,2.648a.623.623,0,0,0,.88-.88Z" transform="translate(-0.758 -0.391)" stroke="#000" stroke-width="0.3"/>
          <path id="Path_222" data-name="Path 222" d="M8.891,10.831a.621.621,0,0,0-.88,0L5.363,13.479V2.579a.63.63,0,0,0-1.26,0v10.9L1.454,10.831a.623.623,0,0,0-.88.88l3.72,3.72a.621.621,0,0,0,.88,0l3.72-3.72a.624.624,0,0,0,0-.88Z" transform="translate(-0.391 -0.475)" stroke="#000" stroke-width="0.3"/>
        </g>
      </g>
    </g>
  </g>
</svg>
